<?xml version="1.0" standalone="no"?>
<!DOCTYPE svg PUBLIC "-//W3C//DTD SVG 20010904//EN"
 "http://www.w3.org/TR/2001/REC-SVG-20010904/DTD/svg10.dtd">
<svg version="1.0" xmlns="http://www.w3.org/2000/svg"
 width="242.000000pt" height="252.000000pt" viewBox="0 0 242.000000 252.000000"
 preserveAspectRatio="xMidYMid meet">

<g transform="translate(0.000000,252.000000) scale(0.100000,-0.100000)"
fill="#000000" stroke="none">
<path d="M1295 2440 c-46 -7 -72 -20 -135 -66 -25 -18 -68 -38 -95 -45 -114
-27 -217 -95 -321 -210 -23 -25 -51 -48 -63 -52 -18 -4 -22 1 -31 36 -29 113
-69 181 -143 240 -54 44 -134 49 -204 13 -62 -31 -87 -69 -102 -157 -24 -142
-4 -294 61 -459 l42 -105 4 -192 4 -193 -60 -77 c-108 -141 -132 -208 -157
-444 -17 -156 -17 -157 6 -273 l22 -116 38 0 37 0 -18 59 c-17 52 -31 158 -47
351 -12 144 39 295 135 400 27 30 52 53 54 50 2 -3 18 -51 37 -108 22 -66 52
-129 83 -178 l49 -74 -17 -45 c-14 -38 -16 -62 -9 -148 11 -134 12 -223 3
-270 l-7 -37 38 0 c38 0 38 0 45 46 10 78 6 145 -14 234 -22 94 -26 170 -9
170 6 0 31 -17 57 -38 105 -86 216 -146 320 -172 53 -13 67 -41 84 -160 8 -55
15 -80 25 -80 19 0 17 79 -3 152 -19 65 -16 75 15 58 37 -19 80 -90 93 -151 8
-39 17 -59 26 -59 25 0 5 89 -35 153 -19 32 -33 60 -32 62 2 1 27 6 56 10 49
6 54 5 79 -22 39 -41 64 -101 64 -158 1 -99 42 -199 107 -260 15 -14 52 -38
82 -52 44 -22 68 -27 131 -27 68 0 87 5 143 32 88 43 139 107 164 202 l17 70
111 0 110 0 43 53 c46 56 67 115 78 213 6 57 9 62 40 78 20 9 34 23 34 34 0
40 -33 128 -56 150 l-24 23 0 272 0 272 84 84 c62 61 82 88 79 102 -8 30 -37
40 -98 33 l-55 -7 0 29 c0 27 16 62 81 184 19 35 25 64 28 133 4 104 -9 162
-52 237 -34 60 -35 65 -9 66 50 3 52 4 52 33 0 34 -26 43 -101 34 -41 -5 -54
-1 -106 31 -51 32 -66 36 -123 36 -36 0 -82 -5 -102 -10 -29 -8 -44 -8 -65 3
-21 11 -51 13 -124 8 -81 -5 -102 -10 -137 -33 -23 -16 -48 -28 -57 -28 -8 0
-41 13 -72 29 -63 32 -115 41 -178 31z m781 -46 c56 -27 52 -36 -12 -29 -144
15 -159 21 -87 35 58 12 62 11 99 -6z m-627 -3 c20 -13 -7 -19 -119 -25 l-95
-6 40 20 c42 21 148 27 174 11z m256 -1 c-3 -5 -18 -10 -33 -10 -21 0 -24 2
-12 10 20 13 53 13 45 0z m-1285 -40 c18 0 79 -61 103 -103 26 -45 67 -166 67
-199 0 -11 -18 -41 -40 -66 -96 -114 -100 -241 -11 -356 23 -29 41 -59 41 -67
0 -17 -199 -218 -202 -204 -1 6 -2 69 -3 140 -1 129 -2 131 -47 252 -58 154
-71 213 -71 338 -1 105 11 160 46 208 24 35 77 69 95 62 8 -3 18 -5 22 -5z
m955 -40 c71 -6 131 -12 132 -14 2 -2 -4 -23 -12 -46 -9 -27 -18 -99 -22 -182
-3 -76 -9 -138 -13 -138 -4 0 -43 18 -87 40 -44 23 -125 52 -183 66 -58 14
-108 28 -112 30 -9 6 20 122 43 170 31 66 64 97 97 90 15 -3 85 -10 157 -16z
m765 -116 c0 -85 -3 -115 -12 -112 -6 2 -17 27 -23 55 -7 29 -19 63 -28 77
-10 14 -17 31 -17 38 0 16 62 68 72 62 5 -3 8 -57 8 -120z m-1074 58 c-13 -27
-32 -74 -41 -106 -9 -31 -22 -59 -29 -62 -7 -3 -66 -3 -132 -2 l-119 3 50 54
c28 29 75 69 105 89 56 36 169 82 182 75 4 -2 -3 -25 -16 -51z m817 48 c11 0
26 -17 39 -45 21 -42 21 -48 8 -93 -8 -26 -16 -83 -18 -127 -4 -86 -10 -98
-54 -121 -24 -12 -32 -13 -44 -3 -32 26 -48 78 -59 189 -10 94 -10 120 1 141
18 37 65 70 89 64 11 -3 28 -5 38 -5z m-215 -42 c-3 -24 -13 -83 -23 -132 -25
-119 -13 -209 38 -293 20 -32 34 -60 32 -62 -3 -2 -19 8 -38 21 -27 21 -38 42
-61 119 -27 88 -28 96 -15 139 8 25 14 88 15 140 0 52 1 98 2 103 1 4 14 7 28
7 25 0 26 -2 22 -42z m632 -135 c18 -84 8 -181 -25 -248 -15 -31 -28 -55 -30
-53 -2 2 1 39 6 83 5 44 12 124 15 178 4 53 10 97 15 97 4 0 13 -26 19 -57z
m-70 -163 c0 -36 -5 -72 -10 -80 -7 -10 -10 15 -10 80 0 65 3 90 10 80 5 -8
10 -44 10 -80z m-1320 57 c59 -12 65 -15 62 -36 -1 -12 -15 -41 -31 -64 -28
-40 -232 -249 -250 -255 -10 -3 -19 45 -27 153 -7 85 10 160 43 198 19 21 104
22 203 4z m848 -115 c23 -31 26 -67 7 -67 -20 0 -56 86 -61 142 l-5 58 18 -50
c10 -28 29 -65 41 -83z m-577 69 c74 -19 207 -76 244 -104 19 -15 18 -17 -30
-64 -160 -155 -297 -240 -435 -269 -91 -19 -217 -16 -230 6 -21 33 -6 56 119
177 108 103 136 137 168 198 44 86 45 87 164 56z m959 -156 c0 -154 -1 -165
-20 -175 -23 -12 -20 -19 -44 91 l-17 76 32 86 c17 48 35 87 40 87 5 0 9 -73
9 -165z m-1545 -14 c10 -207 -1 -232 -58 -132 -25 43 -31 66 -31 116 -1 55 3
68 34 114 19 28 38 51 41 51 4 0 10 -67 14 -149z m1355 43 c12 -19 20 -38 17
-41 -7 -6 -87 37 -87 47 0 5 23 20 47 29 1 1 11 -15 23 -35z m-49 -71 c43 -39
46 -50 24 -93 -26 -50 -83 -32 -115 36 -24 53 -25 72 -4 95 20 22 36 15 95
-38z m-435 -99 c-4 -10 -23 -14 -58 -14 -29 0 -69 -4 -87 -10 -48 -14 -50 -5
-4 18 21 11 63 43 93 70 l55 50 3 -50 c2 -28 1 -57 -2 -64z m121 86 c7 -14 13
-39 13 -56 0 -26 -5 -33 -25 -36 -13 -3 -27 -3 -30 0 -3 3 -5 32 -5 64 0 51 2
59 17 56 10 -2 23 -14 30 -28z m103 -88 c-27 -4 -34 2 -26 24 6 15 8 15 27 -2
l21 -19 -22 -3z m-219 -247 c6 -149 25 -308 45 -384 7 -23 5 -22 -62 15 -38
21 -109 50 -159 64 -88 25 -90 26 -112 70 -24 49 -48 217 -37 254 26 84 159
158 274 153 l45 -2 6 -170z m122 130 c-9 -210 -9 -217 24 -305 38 -102 85
-215 107 -258 9 -17 16 -42 16 -55 0 -83 -115 -25 -182 91 -29 51 -33 65 -32
132 2 151 15 423 20 432 3 5 16 8 27 6 19 -3 22 -9 20 -43z m162 25 c8 -24 4
-394 -5 -435 -5 -28 -7 -27 -32 35 -84 204 -89 233 -67 342 16 79 15 78 58 78
31 0 41 -4 46 -20z m535 12 c0 -4 -5 -13 -12 -20 -18 -18 -28 -15 -28 8 0 13
7 20 20 20 11 0 20 -4 20 -8z m-158 -61 c-4 -58 -15 -65 -31 -20 -9 25 -7 35
7 54 9 13 19 22 22 20 3 -2 3 -26 2 -54z m-272 -16 c0 -13 8 -28 17 -33 15 -9
14 -15 -11 -71 -15 -33 -31 -80 -35 -103 -7 -32 -9 -5 -10 105 -1 145 -1 147
19 137 12 -6 20 -21 20 -35z m-724 13 c-36 -88 -52 -251 -32 -344 l8 -41 -48
-8 c-27 -3 -67 -15 -89 -24 -62 -28 -139 -103 -159 -156 -19 -49 -34 -53 -53
-15 -25 51 -26 144 -2 271 19 106 21 130 11 179 -17 83 -19 80 47 80 76 0 198
23 253 49 51 23 72 26 64 9z m-441 -112 c12 -50 18 -127 19 -261 2 -104 6
-198 10 -207 5 -10 4 -18 0 -19 -5 0 -38 -2 -73 -3 l-63 -4 -24 53 c-60 131
-54 241 21 380 24 44 46 96 50 115 4 19 10 39 13 44 10 17 31 -26 47 -98z
m1345 -30 c0 -12 -7 -31 -15 -42 -14 -18 -14 -17 -15 13 0 39 9 65 21 57 5 -3
9 -15 9 -28z m-1518 -19 c-29 -45 -62 -172 -62 -233 0 -65 31 -168 65 -214 30
-40 32 -49 6 -26 -46 42 -141 272 -141 342 0 27 11 42 72 98 39 36 73 66 76
66 2 0 -5 -15 -16 -33z m1385 -49 c-6 -32 -14 -58 -19 -58 -11 0 -10 73 2 106
18 46 29 14 17 -48z m272 5 l-1 -48 -14 33 c-11 26 -12 37 -3 48 17 21 19 18
18 -33z m-352 -235 c-2 -18 -4 -4 -4 32 0 36 2 50 4 33 2 -18 2 -48 0 -65z
m190 30 c-3 -7 -5 -2 -5 12 0 14 2 19 5 13 2 -7 2 -19 0 -25z m-851 -55 c9
-16 48 -60 86 -99 l69 -71 -61 -12 c-34 -7 -99 -32 -144 -56 l-82 -43 -39 20
c-22 11 -62 34 -89 51 l-48 31 4 48 c9 91 105 153 244 157 35 1 45 -3 60 -26z
m869 -80 c-12 -32 -25 -8 -24 45 l1 57 14 -45 c8 -25 12 -51 9 -57z m-660 42
c81 -41 265 -179 265 -200 0 -17 -47 -55 -69 -55 -9 1 -86 69 -171 151 -168
164 -171 177 -25 104z m774 -3 c-1 -20 -4 -48 -8 -62 l-7 -25 -8 22 c-9 28 3
115 15 107 5 -3 9 -22 8 -42z m-269 -129 l-1 -108 -24 55 c-13 30 -24 63 -25
74 0 17 36 86 46 86 2 0 4 -48 4 -107z m228 -20 c12 -20 -5 -76 -22 -70 -6 2
-12 22 -14 45 -2 32 0 42 12 42 8 0 19 -8 24 -17z m-1357 -29 c24 -22 63 -93
55 -101 -11 -11 -100 31 -138 65 -54 49 -51 66 12 60 30 -3 59 -13 71 -24z
m674 -56 c25 -33 44 -66 42 -71 -5 -16 -129 -55 -216 -68 l-78 -12 -44 48
c-24 26 -45 50 -47 54 -1 4 11 20 28 36 38 36 149 74 218 75 l52 0 45 -62z
m325 10 c0 -16 -3 -19 -11 -11 -6 6 -8 16 -5 22 11 17 16 13 16 -11z m-805
-48 c-9 -15 -26 -12 -41 8 -22 28 -16 34 16 17 17 -9 28 -20 25 -25z m1070 -4
c-4 -19 -13 -40 -19 -45 -17 -14 -78 -18 -82 -6 -2 9 97 95 104 90 2 -2 0 -19
-3 -39z m-266 -14 c14 -30 2 -54 -44 -81 -19 -11 -35 -26 -35 -34 0 -27 28
-52 60 -52 30 0 34 -4 55 -60 20 -55 21 -64 9 -105 -8 -25 -14 -48 -14 -52 0
-13 33 -9 62 6 15 8 29 12 32 8 15 -14 3 -74 -25 -130 -88 -177 -323 -218
-456 -80 -56 59 -70 91 -88 202 -17 107 -26 136 -55 176 -11 16 -20 33 -20 38
0 21 125 71 200 80 85 11 90 9 119 -52 36 -74 21 -140 -50 -221 l-31 -35 28 0
c20 0 38 10 57 32 l28 33 -6 -32 c-6 -30 -4 -33 18 -33 29 0 35 12 43 83 5 47
-14 210 -31 263 -5 16 3 27 45 56 57 40 78 38 99 -10z m355 -50 c-8 -35 -21
-105 -28 -155 l-13 -92 -2 127 c-1 123 0 127 25 158 15 17 28 30 29 28 2 -2
-3 -32 -11 -66z m-1039 -18 l40 -36 -54 5 c-41 3 -59 10 -73 27 -42 52 29 55
87 4z m1105 -134 c-20 -74 -26 -41 -11 58 l16 97 3 -57 c2 -32 -2 -75 -8 -98z
m-174 108 c-3 -13 -6 -45 -6 -71 0 -59 -13 -54 -36 15 -16 49 -16 52 2 65 29
21 47 17 40 -9z m-67 -178 c26 -68 26 -73 2 -60 -21 11 -26 23 -36 90 -9 58 6
45 34 -30z"/>
</g>
</svg>
