<?xml version="1.0" standalone="no"?>
<!DOCTYPE svg PUBLIC "-//W3C//DTD SVG 20010904//EN"
 "http://www.w3.org/TR/2001/REC-SVG-20010904/DTD/svg10.dtd">
<svg version="1.0" xmlns="http://www.w3.org/2000/svg"
 width="232.000000pt" height="232.000000pt" viewBox="0 0 232.000000 232.000000"
 preserveAspectRatio="xMidYMid meet">

<g transform="translate(0.000000,232.000000) scale(0.100000,-0.100000)"
fill="#000000" stroke="none">
<path d="M0 1160 l0 -1160 1160 0 1160 0 0 1160 0 1160 -1160 0 -1160 0 0
-1160z m1678 108 l2 -538 -530 0 -530 0 0 540 0 540 528 -2 527 -3 3 -537z
m-1080 -708 c17 -16 22 -31 20 -63 l-1 -42 -4 41 c-5 55 -33 81 -71 68 -23 -8
-28 -16 -33 -59 l-6 -50 -1 47 c-2 38 2 50 20 62 30 21 50 20 76 -4z m82 10
c0 -5 -4 -10 -10 -10 -5 0 -10 5 -10 10 0 6 5 10 10 10 6 0 10 -4 10 -10z m47
-82 c-2 -18 -4 -4 -4 32 0 36 2 50 4 33 2 -18 2 -48 0 -65z m104 75 c12 -16
12 -17 -1 -6 -8 6 -33 13 -55 16 l-40 4 41 1 c29 1 46 -3 55 -15z m450 6 c-14
-5 -30 -13 -36 -17 -6 -4 -2 1 8 11 11 9 27 17 36 16 10 0 7 -4 -8 -10z m519
1 c0 -5 -4 -10 -10 -10 -5 0 -10 5 -10 10 0 6 5 10 10 10 6 0 10 -4 10 -10z
m-890 -95 c23 0 25 5 29 50 l5 50 5 -50 c5 -45 8 -50 31 -50 23 0 26 5 31 50
l6 50 1 -46 c2 -57 -8 -66 -73 -67 -64 0 -75 10 -73 67 l1 46 6 -50 c5 -45 8
-50 31 -50z m243 46 c15 -27 27 -53 27 -57 -1 -5 -12 12 -26 39 -13 26 -28 47
-32 47 -4 0 -18 -20 -31 -45 -13 -25 -25 -44 -27 -42 -5 5 50 107 57 107 3 0
18 -22 32 -49z m193 14 c3 -12 4 -36 1 -51 -3 -24 -4 -22 -6 10 0 22 -9 48
-18 58 -16 18 -16 18 0 12 10 -3 20 -16 23 -29z m141 -20 c17 -30 28 -55 24
-55 -3 0 -17 20 -31 45 -22 41 -26 43 -41 29 -10 -9 -23 -29 -29 -45 -7 -16
-15 -28 -17 -25 -6 5 49 106 57 106 3 -1 19 -25 37 -55z m217 4 c15 -29 25
-54 23 -56 -2 -2 -15 17 -28 42 -13 25 -26 45 -29 45 -3 0 -16 -20 -29 -45
-13 -25 -26 -43 -28 -41 -6 6 48 106 57 106 4 0 19 -23 34 -51z m-1037 -21
c-2 -13 -4 -5 -4 17 -1 22 1 32 4 23 2 -10 2 -28 0 -40z m1120 0 c-2 -13 -4
-5 -4 17 -1 22 1 32 4 23 2 -10 2 -28 0 -40z m-952 17 c0 -22 -2 -23 -15 -9
-13 13 -13 16 0 24 8 5 15 10 15 10 0 0 0 -11 0 -25z m392 -37 c-2 -13 -4 -5
-4 17 -1 22 1 32 4 23 2 -10 2 -28 0 -40z"/>
<path d="M640 1620 c0 -93 2 -170 4 -170 2 0 18 30 36 67 45 90 145 190 233
232 37 18 67 34 67 37 0 2 -76 4 -170 4 l-170 0 0 -170z"/>
<path d="M1080 1783 c-230 -38 -410 -224 -437 -450 l-6 -53 157 0 c86 0 156 4
156 9 0 20 -52 100 -90 136 -22 22 -40 47 -40 55 0 25 86 -68 125 -136 36 -62
39 -64 77 -64 39 0 40 1 34 28 -15 62 -68 155 -117 207 -58 61 -60 89 -3 34
53 -51 94 -114 125 -193 23 -60 31 -71 53 -74 25 -3 26 -1 26 41 0 87 -59 214
-134 286 -20 19 -36 42 -36 50 1 24 107 -93 135 -150 14 -27 28 -49 30 -49 3
0 5 74 5 165 0 181 5 169 -60 158z"/>
<path d="M1160 1690 l0 -100 190 0 c107 0 190 4 190 9 0 21 -110 106 -175 137
-57 26 -158 54 -197 54 -4 0 -8 -45 -8 -100z"/>
<path d="M1320 1786 c0 -2 30 -18 66 -36 93 -45 190 -143 237 -239 l37 -74 0
177 0 176 -170 0 c-93 0 -170 -2 -170 -4z"/>
<path d="M1162 1503 l3 -68 233 -3 c266 -3 255 -7 202 86 l-30 52 -206 0 -205
0 3 -67z m261 -8 c-4 -15 -66 -12 -71 3 -3 10 6 13 34 10 22 -2 38 -7 37 -13z"/>
<path d="M1160 1345 l0 -65 251 0 251 0 -7 58 c-4 31 -9 60 -12 65 -2 4 -112
7 -244 7 l-239 0 0 -65z m270 5 c0 -5 -18 -10 -40 -10 -22 0 -40 5 -40 10 0 6
18 10 40 10 22 0 40 -4 40 -10z"/>
<path d="M640 1025 l0 -235 250 0 250 0 0 235 0 235 -115 0 -115 0 0 -65 c0
-36 4 -65 9 -65 5 0 23 -12 40 -26 24 -19 31 -34 31 -60 l0 -34 -95 0 -95 0 0
34 c0 26 7 41 31 60 17 14 35 26 40 26 5 0 9 29 9 65 l0 65 -120 0 -120 0 0
-235z m288 -57 c-3 -7 -15 -13 -28 -13 -13 0 -25 6 -27 13 -3 8 6 12 27 12 21
0 30 -4 28 -12z"/>
<path d="M1160 1005 l0 -255 74 0 c84 0 79 -6 96 100 13 87 13 100 -5 100 -8
0 -15 5 -15 10 0 6 8 10 19 10 13 0 20 10 25 31 7 37 1 49 -25 49 -10 0 -19 5
-19 10 0 6 42 10 105 10 63 0 105 -4 105 -10 0 -5 -11 -10 -23 -10 -32 0 -35
-5 -28 -43 5 -23 13 -33 29 -35 28 -4 29 -22 1 -22 -19 0 -21 -4 -15 -32 4
-18 12 -63 18 -100 l11 -68 73 0 74 0 0 255 0 255 -250 0 -250 0 0 -255z"/>
<path d="M846 1089 c-14 -11 -26 -29 -26 -40 0 -17 8 -19 75 -19 65 0 75 2 75
18 0 23 -10 37 -37 51 -32 16 -57 14 -87 -10z"/>
<path d="M1386 1034 c-3 -9 -6 -27 -6 -40 0 -20 5 -24 30 -24 36 0 45 16 31
53 -12 30 -45 37 -55 11z"/>
<path d="M1361 898 c-6 -29 -13 -74 -17 -100 l-6 -48 71 0 c71 0 71 0 70 28 0
15 -6 59 -12 97 l-12 70 -42 3 -41 3 -11 -53z"/>
</g>
</svg>
